# NCA starship Z-up king
o king
v 0.600000 0.000000 0.000000
v 0.485410 0.352671 0.000000
v 0.185410 0.570634 0.000000
v -0.185410 0.570634 0.000000
v -0.485410 0.352671 0.000000
v -0.600000 0.000000 0.000000
v -0.485410 -0.352671 0.000000
v -0.185410 -0.570634 0.000000
v 0.185410 -0.570634 0.000000
v 0.485410 -0.352671 0.000000
v 0.550000 0.000000 0.200000
v 0.444959 0.323282 0.200000
v 0.169959 0.523081 0.200000
v -0.169959 0.523081 0.200000
v -0.444959 0.323282 0.200000
v -0.550000 0.000000 0.200000
v -0.444959 -0.323282 0.200000
v -0.169959 -0.523081 0.200000
v 0.169959 -0.523081 0.200000
v 0.444959 -0.323282 0.200000
v 0.000000 0.000000 0.000000
v 0.000000 0.000000 0.200000
v -0.450000 -0.800000 0.200000
v 0.450000 -0.800000 0.200000
v 0.450000 0.800000 0.200000
v -0.450000 0.800000 0.200000
v -0.450000 -0.800000 0.900000
v 0.450000 -0.800000 0.900000
v 0.450000 0.800000 0.900000
v -0.450000 0.800000 0.900000
v -0.300000 -0.600000 0.875000
v 0.300000 -0.600000 0.875000
v 0.300000 0.200000 0.875000
v -0.300000 0.200000 0.875000
v -0.300000 -0.600000 1.225000
v 0.300000 -0.600000 1.225000
v 0.300000 0.200000 1.225000
v -0.300000 0.200000 1.225000
v -0.225000 -0.600000 1.175000
v 0.225000 -0.600000 1.175000
v 0.225000 -0.100000 1.175000
v -0.225000 -0.100000 1.175000
v -0.225000 -0.600000 1.725000
v 0.225000 -0.600000 1.725000
v 0.225000 -0.100000 1.725000
v -0.225000 -0.100000 1.725000
v -0.150000 -0.500000 1.725000
v 0.150000 -0.500000 1.725000
v 0.150000 -0.200000 1.725000
v -0.150000 -0.200000 1.725000
v -0.150000 -0.500000 1.975000
v 0.150000 -0.500000 1.975000
v 0.150000 -0.200000 1.975000
v -0.150000 -0.200000 1.975000
v 0.325000 -0.875000 0.225000
v 0.575000 -0.875000 0.225000
v 0.575000 -0.525000 0.225000
v 0.325000 -0.525000 0.225000
v 0.325000 -0.875000 0.575000
v 0.575000 -0.875000 0.575000
v 0.575000 -0.525000 0.575000
v 0.325000 -0.525000 0.575000
v -0.575000 -0.875000 0.225000
v -0.325000 -0.875000 0.225000
v -0.325000 -0.525000 0.225000
v -0.575000 -0.525000 0.225000
v -0.575000 -0.875000 0.575000
v -0.325000 -0.875000 0.575000
v -0.325000 -0.525000 0.575000
v -0.575000 -0.525000 0.575000
v -0.040000 0.460000 1.150000
v 0.040000 0.460000 1.150000
v 0.040000 0.540000 1.150000
v -0.040000 0.540000 1.150000
v -0.040000 0.460000 1.850000
v 0.040000 0.460000 1.850000
v 0.040000 0.540000 1.850000
v -0.040000 0.540000 1.850000
v -0.100000 0.400000 1.850000
v 0.100000 0.400000 1.850000
v 0.100000 0.600000 1.850000
v -0.100000 0.600000 1.850000
v -0.100000 0.400000 1.950000
v 0.100000 0.400000 1.950000
v 0.100000 0.600000 1.950000
v -0.100000 0.600000 1.950000
v 0.475000 -0.400000 0.350000
v 0.625000 -0.400000 0.350000
v 0.625000 0.600000 0.350000
v 0.475000 0.600000 0.350000
v 0.475000 -0.400000 0.850000
v 0.625000 -0.400000 0.850000
v 0.625000 0.600000 0.850000
v 0.475000 0.600000 0.850000
v -0.625000 -0.400000 0.350000
v -0.475000 -0.400000 0.350000
v -0.475000 0.600000 0.350000
v -0.625000 0.600000 0.350000
v -0.625000 -0.400000 0.850000
v -0.475000 -0.400000 0.850000
v -0.475000 0.600000 0.850000
v -0.625000 0.600000 0.850000
vn 0.900530 0.097533 -0.423714
vn 0.671215 0.608224 -0.423714
vn 0.185519 0.886594 -0.423714
vn -0.371039 0.826315 -0.423714
vn -0.785873 0.450412 -0.423714
vn -0.900530 -0.097533 -0.423714
vn -0.671215 -0.608224 -0.423714
vn -0.185519 -0.886594 -0.423714
vn 0.371039 -0.826315 -0.423714
vn 0.785873 -0.450412 -0.423714
vn 0.715449 -0.077488 0.694355
vn 0.624357 0.357841 0.694355
vn 0.294781 0.656487 0.694355
vn -0.147391 0.704377 0.694355
vn -0.533264 0.483219 0.694355
vn -0.715449 0.077488 0.694355
vn -0.624357 -0.357841 0.694355
vn -0.294781 -0.656487 0.694355
vn 0.147391 -0.704377 0.694355
vn 0.533264 -0.483219 0.694355
vn 0.000000 0.000000 -1.000000
vn 0.000000 0.000000 1.000000
vn -0.333333 -0.666667 -0.666667
vn 0.816497 -0.408248 -0.408248
vn 0.333333 0.666667 -0.666667
vn -0.816497 0.408248 -0.408248
vn -0.666667 -0.333333 0.666667
vn 0.408248 -0.816497 0.408248
vn 0.666667 0.333333 0.666667
vn -0.408248 0.816497 0.408248
vn -0.333333 -0.666667 -0.666667
vn 0.816497 -0.408248 -0.408248
vn 0.333333 0.666667 -0.666667
vn -0.816497 0.408248 -0.408248
vn -0.666667 -0.333333 0.666667
vn 0.408248 -0.816497 0.408248
vn 0.666667 0.333333 0.666667
vn -0.408248 0.816497 0.408248
vn -0.333333 -0.666667 -0.666667
vn 0.816497 -0.408248 -0.408248
vn 0.333333 0.666667 -0.666667
vn -0.816497 0.408248 -0.408248
vn -0.666667 -0.333333 0.666667
vn 0.408248 -0.816497 0.408248
vn 0.666667 0.333333 0.666667
vn -0.408248 0.816497 0.408248
vn -0.333333 -0.666667 -0.666667
vn 0.816497 -0.408248 -0.408248
vn 0.333333 0.666667 -0.666667
vn -0.816497 0.408248 -0.408248
vn -0.666667 -0.333333 0.666667
vn 0.408248 -0.816497 0.408248
vn 0.666667 0.333333 0.666667
vn -0.408248 0.816497 0.408248
vn -0.333333 -0.666667 -0.666667
vn 0.816497 -0.408248 -0.408248
vn 0.333333 0.666667 -0.666667
vn -0.816497 0.408248 -0.408248
vn -0.666667 -0.333333 0.666667
vn 0.408248 -0.816497 0.408248
vn 0.666667 0.333333 0.666667
vn -0.408248 0.816497 0.408248
vn -0.333333 -0.666667 -0.666667
vn 0.816497 -0.408248 -0.408248
vn 0.333333 0.666667 -0.666667
vn -0.816497 0.408248 -0.408248
vn -0.666667 -0.333333 0.666667
vn 0.408248 -0.816497 0.408248
vn 0.666667 0.333333 0.666667
vn -0.408248 0.816497 0.408248
vn -0.333333 -0.666667 -0.666667
vn 0.816497 -0.408248 -0.408248
vn 0.333333 0.666667 -0.666667
vn -0.816497 0.408248 -0.408248
vn -0.666667 -0.333333 0.666667
vn 0.408248 -0.816497 0.408248
vn 0.666667 0.333333 0.666667
vn -0.408248 0.816497 0.408248
vn -0.333333 -0.666667 -0.666667
vn 0.816497 -0.408248 -0.408248
vn 0.333333 0.666667 -0.666667
vn -0.816497 0.408248 -0.408248
vn -0.666667 -0.333333 0.666667
vn 0.408248 -0.816497 0.408248
vn 0.666667 0.333333 0.666667
vn -0.408248 0.816497 0.408248
vn -0.333333 -0.666667 -0.666667
vn 0.816497 -0.408248 -0.408248
vn 0.333333 0.666667 -0.666667
vn -0.816497 0.408248 -0.408248
vn -0.666667 -0.333333 0.666667
vn 0.408248 -0.816497 0.408248
vn 0.666667 0.333333 0.666667
vn -0.408248 0.816497 0.408248
vn -0.333333 -0.666667 -0.666667
vn 0.816497 -0.408248 -0.408248
vn 0.333333 0.666667 -0.666667
vn -0.816497 0.408248 -0.408248
vn -0.666667 -0.333333 0.666667
vn 0.408248 -0.816497 0.408248
vn 0.666667 0.333333 0.666667
vn -0.408248 0.816497 0.408248
f 1//1 2//2 12//12
f 1//1 12//12 11//11
f 2//2 3//3 13//13
f 2//2 13//13 12//12
f 3//3 4//4 14//14
f 3//3 14//14 13//13
f 4//4 5//5 15//15
f 4//4 15//15 14//14
f 5//5 6//6 16//16
f 5//5 16//16 15//15
f 6//6 7//7 17//17
f 6//6 17//17 16//16
f 7//7 8//8 18//18
f 7//7 18//18 17//17
f 8//8 9//9 19//19
f 8//8 19//19 18//18
f 9//9 10//10 20//20
f 9//9 20//20 19//19
f 10//10 1//1 11//11
f 10//10 11//11 20//20
f 21//21 2//2 1//1
f 22//22 11//11 12//12
f 21//21 3//3 2//2
f 22//22 12//12 13//13
f 21//21 4//4 3//3
f 22//22 13//13 14//14
f 21//21 5//5 4//4
f 22//22 14//14 15//15
f 21//21 6//6 5//5
f 22//22 15//15 16//16
f 21//21 7//7 6//6
f 22//22 16//16 17//17
f 21//21 8//8 7//7
f 22//22 17//17 18//18
f 21//21 9//9 8//8
f 22//22 18//18 19//19
f 21//21 10//10 9//9
f 22//22 19//19 20//20
f 21//21 1//1 10//10
f 22//22 20//20 11//11
f 23//23 25//25 24//24
f 23//23 26//26 25//25
f 27//27 28//28 29//29
f 27//27 29//29 30//30
f 23//23 24//24 28//28
f 23//23 28//28 27//27
f 24//24 25//25 29//29
f 24//24 29//29 28//28
f 25//25 26//26 30//30
f 25//25 30//30 29//29
f 26//26 23//23 27//27
f 26//26 27//27 30//30
f 31//31 33//33 32//32
f 31//31 34//34 33//33
f 35//35 36//36 37//37
f 35//35 37//37 38//38
f 31//31 32//32 36//36
f 31//31 36//36 35//35
f 32//32 33//33 37//37
f 32//32 37//37 36//36
f 33//33 34//34 38//38
f 33//33 38//38 37//37
f 34//34 31//31 35//35
f 34//34 35//35 38//38
f 39//39 41//41 40//40
f 39//39 42//42 41//41
f 43//43 44//44 45//45
f 43//43 45//45 46//46
f 39//39 40//40 44//44
f 39//39 44//44 43//43
f 40//40 41//41 45//45
f 40//40 45//45 44//44
f 41//41 42//42 46//46
f 41//41 46//46 45//45
f 42//42 39//39 43//43
f 42//42 43//43 46//46
f 47//47 49//49 48//48
f 47//47 50//50 49//49
f 51//51 52//52 53//53
f 51//51 53//53 54//54
f 47//47 48//48 52//52
f 47//47 52//52 51//51
f 48//48 49//49 53//53
f 48//48 53//53 52//52
f 49//49 50//50 54//54
f 49//49 54//54 53//53
f 50//50 47//47 51//51
f 50//50 51//51 54//54
f 55//55 57//57 56//56
f 55//55 58//58 57//57
f 59//59 60//60 61//61
f 59//59 61//61 62//62
f 55//55 56//56 60//60
f 55//55 60//60 59//59
f 56//56 57//57 61//61
f 56//56 61//61 60//60
f 57//57 58//58 62//62
f 57//57 62//62 61//61
f 58//58 55//55 59//59
f 58//58 59//59 62//62
f 63//63 65//65 64//64
f 63//63 66//66 65//65
f 67//67 68//68 69//69
f 67//67 69//69 70//70
f 63//63 64//64 68//68
f 63//63 68//68 67//67
f 64//64 65//65 69//69
f 64//64 69//69 68//68
f 65//65 66//66 70//70
f 65//65 70//70 69//69
f 66//66 63//63 67//67
f 66//66 67//67 70//70
f 71//71 73//73 72//72
f 71//71 74//74 73//73
f 75//75 76//76 77//77
f 75//75 77//77 78//78
f 71//71 72//72 76//76
f 71//71 76//76 75//75
f 72//72 73//73 77//77
f 72//72 77//77 76//76
f 73//73 74//74 78//78
f 73//73 78//78 77//77
f 74//74 71//71 75//75
f 74//74 75//75 78//78
f 79//79 81//81 80//80
f 79//79 82//82 81//81
f 83//83 84//84 85//85
f 83//83 85//85 86//86
f 79//79 80//80 84//84
f 79//79 84//84 83//83
f 80//80 81//81 85//85
f 80//80 85//85 84//84
f 81//81 82//82 86//86
f 81//81 86//86 85//85
f 82//82 79//79 83//83
f 82//82 83//83 86//86
f 87//87 89//89 88//88
f 87//87 90//90 89//89
f 91//91 92//92 93//93
f 91//91 93//93 94//94
f 87//87 88//88 92//92
f 87//87 92//92 91//91
f 88//88 89//89 93//93
f 88//88 93//93 92//92
f 89//89 90//90 94//94
f 89//89 94//94 93//93
f 90//90 87//87 91//91
f 90//90 91//91 94//94
f 95//95 97//97 96//96
f 95//95 98//98 97//97
f 99//99 100//100 101//101
f 99//99 101//101 102//102
f 95//95 96//96 100//100
f 95//95 100//100 99//99
f 96//96 97//97 101//101
f 96//96 101//101 100//100
f 97//97 98//98 102//102
f 97//97 102//102 101//101
f 98//98 95//95 99//99
f 98//98 99//99 102//102
