# NCA starship Z-up knight
o knight
v 0.500000 0.000000 0.000000
v 0.250000 0.433013 0.000000
v -0.250000 0.433013 0.000000
v -0.500000 0.000000 0.000000
v -0.250000 -0.433013 0.000000
v 0.250000 -0.433013 0.000000
v 0.400000 0.000000 0.200000
v 0.200000 0.346410 0.200000
v -0.200000 0.346410 0.200000
v -0.400000 0.000000 0.200000
v -0.200000 -0.346410 0.200000
v 0.200000 -0.346410 0.200000
v 0.000000 0.000000 0.000000
v 0.000000 0.000000 0.200000
v -0.275000 -0.400000 0.100000
v 0.275000 -0.400000 0.100000
v 0.275000 0.600000 0.100000
v -0.275000 0.600000 0.100000
v -0.275000 -0.400000 1.000000
v 0.275000 -0.400000 1.000000
v 0.275000 0.600000 1.000000
v -0.275000 0.600000 1.000000
v -0.025000 0.250000 0.725000
v 0.325000 0.250000 0.725000
v 0.325000 0.850000 0.725000
v -0.025000 0.850000 0.725000
v -0.025000 0.250000 1.075000
v 0.325000 0.250000 1.075000
v 0.325000 0.850000 1.075000
v -0.025000 0.850000 1.075000
v 0.150000 0.675000 1.050000
v 0.350000 0.675000 1.050000
v 0.350000 1.025000 1.050000
v 0.150000 1.025000 1.050000
v 0.150000 0.675000 1.250000
v 0.350000 0.675000 1.250000
v 0.350000 1.025000 1.250000
v 0.150000 1.025000 1.250000
v -1.050000 -0.300000 0.450000
v -0.150000 -0.300000 0.450000
v -0.150000 0.100000 0.450000
v -1.050000 0.100000 0.450000
v -1.050000 -0.300000 0.550000
v -0.150000 -0.300000 0.550000
v -0.150000 0.100000 0.550000
v -1.050000 0.100000 0.550000
v 0.250000 -0.550000 0.410000
v 0.750000 -0.550000 0.410000
v 0.750000 0.150000 0.410000
v 0.250000 0.150000 0.410000
v 0.250000 -0.550000 0.490000
v 0.750000 -0.550000 0.490000
v 0.750000 0.150000 0.490000
v 0.250000 0.150000 0.490000
v -0.040000 -0.575000 0.700000
v 0.040000 -0.575000 0.700000
v 0.040000 -0.225000 0.700000
v -0.040000 -0.225000 0.700000
v -0.040000 -0.575000 1.300000
v 0.040000 -0.575000 1.300000
v 0.040000 -0.225000 1.300000
v -0.040000 -0.225000 1.300000
vn 0.931747 0.179315 -0.315742
vn 0.310582 0.896574 -0.315742
vn -0.621165 0.717260 -0.315742
vn -0.931747 -0.179315 -0.315742
vn -0.310582 -0.896574 -0.315742
vn 0.621165 -0.717260 -0.315742
vn 0.594479 -0.114408 0.795931
vn 0.396319 0.457630 0.795931
vn -0.198160 0.572038 0.795931
vn -0.594479 0.114408 0.795931
vn -0.396319 -0.457630 0.795931
vn 0.198160 -0.572038 0.795931
vn 0.000000 0.000000 -1.000000
vn 0.000000 0.000000 1.000000
vn -0.333333 -0.666667 -0.666667
vn 0.816497 -0.408248 -0.408248
vn 0.333333 0.666667 -0.666667
vn -0.816497 0.408248 -0.408248
vn -0.666667 -0.333333 0.666667
vn 0.408248 -0.816497 0.408248
vn 0.666667 0.333333 0.666667
vn -0.408248 0.816497 0.408248
vn -0.333333 -0.666667 -0.666667
vn 0.816497 -0.408248 -0.408248
vn 0.333333 0.666667 -0.666667
vn -0.816497 0.408248 -0.408248
vn -0.666667 -0.333333 0.666667
vn 0.408248 -0.816497 0.408248
vn 0.666667 0.333333 0.666667
vn -0.408248 0.816497 0.408248
vn -0.333333 -0.666667 -0.666667
vn 0.816497 -0.408248 -0.408248
vn 0.333333 0.666667 -0.666667
vn -0.816497 0.408248 -0.408248
vn -0.666667 -0.333333 0.666667
vn 0.408248 -0.816497 0.408248
vn 0.666667 0.333333 0.666667
vn -0.408248 0.816497 0.408248
vn -0.333333 -0.666667 -0.666667
vn 0.816497 -0.408248 -0.408248
vn 0.333333 0.666667 -0.666667
vn -0.816497 0.408248 -0.408248
vn -0.666667 -0.333333 0.666667
vn 0.408248 -0.816497 0.408248
vn 0.666667 0.333333 0.666667
vn -0.408248 0.816497 0.408248
vn -0.333333 -0.666667 -0.666667
vn 0.816497 -0.408248 -0.408248
vn 0.333333 0.666667 -0.666667
vn -0.816497 0.408248 -0.408248
vn -0.666667 -0.333333 0.666667
vn 0.408248 -0.816497 0.408248
vn 0.666667 0.333333 0.666667
vn -0.408248 0.816497 0.408248
vn -0.333333 -0.666667 -0.666667
vn 0.816497 -0.408248 -0.408248
vn 0.333333 0.666667 -0.666667
vn -0.816497 0.408248 -0.408248
vn -0.666667 -0.333333 0.666667
vn 0.408248 -0.816497 0.408248
vn 0.666667 0.333333 0.666667
vn -0.408248 0.816497 0.408248
f 1//1 2//2 8//8
f 1//1 8//8 7//7
f 2//2 3//3 9//9
f 2//2 9//9 8//8
f 3//3 4//4 10//10
f 3//3 10//10 9//9
f 4//4 5//5 11//11
f 4//4 11//11 10//10
f 5//5 6//6 12//12
f 5//5 12//12 11//11
f 6//6 1//1 7//7
f 6//6 7//7 12//12
f 13//13 2//2 1//1
f 14//14 7//7 8//8
f 13//13 3//3 2//2
f 14//14 8//8 9//9
f 13//13 4//4 3//3
f 14//14 9//9 10//10
f 13//13 5//5 4//4
f 14//14 10//10 11//11
f 13//13 6//6 5//5
f 14//14 11//11 12//12
f 13//13 1//1 6//6
f 14//14 12//12 7//7
f 15//15 17//17 16//16
f 15//15 18//18 17//17
f 19//19 20//20 21//21
f 19//19 21//21 22//22
f 15//15 16//16 20//20
f 15//15 20//20 19//19
f 16//16 17//17 21//21
f 16//16 21//21 20//20
f 17//17 18//18 22//22
f 17//17 22//22 21//21
f 18//18 15//15 19//19
f 18//18 19//19 22//22
f 23//23 25//25 24//24
f 23//23 26//26 25//25
f 27//27 28//28 29//29
f 27//27 29//29 30//30
f 23//23 24//24 28//28
f 23//23 28//28 27//27
f 24//24 25//25 29//29
f 24//24 29//29 28//28
f 25//25 26//26 30//30
f 25//25 30//30 29//29
f 26//26 23//23 27//27
f 26//26 27//27 30//30
f 31//31 33//33 32//32
f 31//31 34//34 33//33
f 35//35 36//36 37//37
f 35//35 37//37 38//38
f 31//31 32//32 36//36
f 31//31 36//36 35//35
f 32//32 33//33 37//37
f 32//32 37//37 36//36
f 33//33 34//34 38//38
f 33//33 38//38 37//37
f 34//34 31//31 35//35
f 34//34 35//35 38//38
f 39//39 41//41 40//40
f 39//39 42//42 41//41
f 43//43 44//44 45//45
f 43//43 45//45 46//46
f 39//39 40//40 44//44
f 39//39 44//44 43//43
f 40//40 41//41 45//45
f 40//40 45//45 44//44
f 41//41 42//42 46//46
f 41//41 46//46 45//45
f 42//42 39//39 43//43
f 42//42 43//43 46//46
f 47//47 49//49 48//48
f 47//47 50//50 49//49
f 51//51 52//52 53//53
f 51//51 53//53 54//54
f 47//47 48//48 52//52
f 47//47 52//52 51//51
f 48//48 49//49 53//53
f 48//48 53//53 52//52
f 49//49 50//50 54//54
f 49//49 54//54 53//53
f 50//50 47//47 51//51
f 50//50 51//51 54//54
f 55//55 57//57 56//56
f 55//55 58//58 57//57
f 59//59 60//60 61//61
f 59//59 61//61 62//62
f 55//55 56//56 60//60
f 55//55 60//60 59//59
f 56//56 57//57 61//61
f 56//56 61//61 60//60
f 57//57 58//58 62//62
f 57//57 62//62 61//61
f 58//58 55//55 59//59
f 58//58 59//59 62//62
