# NCA starship Z-up boardCell
o boardCell
v -1.800000 -1.800000 0.000000
v 1.800000 -1.800000 0.000000
v 1.800000 1.800000 0.000000
v -1.800000 1.800000 0.000000
v -1.800000 -1.800000 0.160000
v 1.800000 -1.800000 0.160000
v 1.800000 1.800000 0.160000
v -1.800000 1.800000 0.160000
v -1.800000 1.600000 0.140000
v 1.800000 1.600000 0.140000
v 1.800000 1.800000 0.140000
v -1.800000 1.800000 0.140000
v -1.800000 1.600000 0.260000
v 1.800000 1.600000 0.260000
v 1.800000 1.800000 0.260000
v -1.800000 1.800000 0.260000
v -1.800000 -1.800000 0.140000
v 1.800000 -1.800000 0.140000
v 1.800000 -1.600000 0.140000
v -1.800000 -1.600000 0.140000
v -1.800000 -1.800000 0.260000
v 1.800000 -1.800000 0.260000
v 1.800000 -1.600000 0.260000
v -1.800000 -1.600000 0.260000
v 1.600000 -1.700000 0.140000
v 1.800000 -1.700000 0.140000
v 1.800000 1.700000 0.140000
v 1.600000 1.700000 0.140000
v 1.600000 -1.700000 0.260000
v 1.800000 -1.700000 0.260000
v 1.800000 1.700000 0.260000
v 1.600000 1.700000 0.260000
v -1.800000 -1.700000 0.140000
v -1.600000 -1.700000 0.140000
v -1.600000 1.700000 0.140000
v -1.800000 1.700000 0.140000
v -1.800000 -1.700000 0.260000
v -1.600000 -1.700000 0.260000
v -1.600000 1.700000 0.260000
v -1.800000 1.700000 0.260000
v 0.600000 0.350000 0.180000
v 1.000000 0.350000 0.180000
v 1.000000 0.650000 0.180000
v 0.600000 0.650000 0.180000
v 0.600000 0.350000 0.260000
v 1.000000 0.350000 0.260000
v 1.000000 0.650000 0.260000
v 0.600000 0.650000 0.260000
v -0.850000 -0.825000 0.180000
v -0.350000 -0.825000 0.180000
v -0.350000 -0.575000 0.180000
v -0.850000 -0.575000 0.180000
v -0.850000 -0.825000 0.260000
v -0.350000 -0.825000 0.260000
v -0.350000 -0.575000 0.260000
v -0.850000 -0.575000 0.260000
v 1.225000 1.225000 0.175000
v 1.575000 1.225000 0.175000
v 1.575000 1.575000 0.175000
v 1.225000 1.575000 0.175000
v 1.225000 1.225000 0.325000
v 1.575000 1.225000 0.325000
v 1.575000 1.575000 0.325000
v 1.225000 1.575000 0.325000
vn -0.333333 -0.666667 -0.666667
vn 0.816497 -0.408248 -0.408248
vn 0.333333 0.666667 -0.666667
vn -0.816497 0.408248 -0.408248
vn -0.666667 -0.333333 0.666667
vn 0.408248 -0.816497 0.408248
vn 0.666667 0.333333 0.666667
vn -0.408248 0.816497 0.408248
vn -0.333333 -0.666667 -0.666667
vn 0.816497 -0.408248 -0.408248
vn 0.333333 0.666667 -0.666667
vn -0.816497 0.408248 -0.408248
vn -0.666667 -0.333333 0.666667
vn 0.408248 -0.816497 0.408248
vn 0.666667 0.333333 0.666667
vn -0.408248 0.816497 0.408248
vn -0.333333 -0.666667 -0.666667
vn 0.816497 -0.408248 -0.408248
vn 0.333333 0.666667 -0.666667
vn -0.816497 0.408248 -0.408248
vn -0.666667 -0.333333 0.666667
vn 0.408248 -0.816497 0.408248
vn 0.666667 0.333333 0.666667
vn -0.408248 0.816497 0.408248
vn -0.333333 -0.666667 -0.666667
vn 0.816497 -0.408248 -0.408248
vn 0.333333 0.666667 -0.666667
vn -0.816497 0.408248 -0.408248
vn -0.666667 -0.333333 0.666667
vn 0.408248 -0.816497 0.408248
vn 0.666667 0.333333 0.666667
vn -0.408248 0.816497 0.408248
vn -0.333333 -0.666667 -0.666667
vn 0.816497 -0.408248 -0.408248
vn 0.333333 0.666667 -0.666667
vn -0.816497 0.408248 -0.408248
vn -0.666667 -0.333333 0.666667
vn 0.408248 -0.816497 0.408248
vn 0.666667 0.333333 0.666667
vn -0.408248 0.816497 0.408248
vn -0.333333 -0.666667 -0.666667
vn 0.816497 -0.408248 -0.408248
vn 0.333333 0.666667 -0.666667
vn -0.816497 0.408248 -0.408248
vn -0.666667 -0.333333 0.666667
vn 0.408248 -0.816497 0.408248
vn 0.666667 0.333333 0.666667
vn -0.408248 0.816497 0.408248
vn -0.333333 -0.666667 -0.666667
vn 0.816497 -0.408248 -0.408248
vn 0.333333 0.666667 -0.666667
vn -0.816497 0.408248 -0.408248
vn -0.666667 -0.333333 0.666667
vn 0.408248 -0.816497 0.408248
vn 0.666667 0.333333 0.666667
vn -0.408248 0.816497 0.408248
vn -0.333333 -0.666667 -0.666667
vn 0.816497 -0.408248 -0.408248
vn 0.333333 0.666667 -0.666667
vn -0.816497 0.408248 -0.408248
vn -0.666667 -0.333333 0.666667
vn 0.408248 -0.816497 0.408248
vn 0.666667 0.333333 0.666667
vn -0.408248 0.816497 0.408248
f 1//1 3//3 2//2
f 1//1 4//4 3//3
f 5//5 6//6 7//7
f 5//5 7//7 8//8
f 1//1 2//2 6//6
f 1//1 6//6 5//5
f 2//2 3//3 7//7
f 2//2 7//7 6//6
f 3//3 4//4 8//8
f 3//3 8//8 7//7
f 4//4 1//1 5//5
f 4//4 5//5 8//8
f 9//9 11//11 10//10
f 9//9 12//12 11//11
f 13//13 14//14 15//15
f 13//13 15//15 16//16
f 9//9 10//10 14//14
f 9//9 14//14 13//13
f 10//10 11//11 15//15
f 10//10 15//15 14//14
f 11//11 12//12 16//16
f 11//11 16//16 15//15
f 12//12 9//9 13//13
f 12//12 13//13 16//16
f 17//17 19//19 18//18
f 17//17 20//20 19//19
f 21//21 22//22 23//23
f 21//21 23//23 24//24
f 17//17 18//18 22//22
f 17//17 22//22 21//21
f 18//18 19//19 23//23
f 18//18 23//23 22//22
f 19//19 20//20 24//24
f 19//19 24//24 23//23
f 20//20 17//17 21//21
f 20//20 21//21 24//24
f 25//25 27//27 26//26
f 25//25 28//28 27//27
f 29//29 30//30 31//31
f 29//29 31//31 32//32
f 25//25 26//26 30//30
f 25//25 30//30 29//29
f 26//26 27//27 31//31
f 26//26 31//31 30//30
f 27//27 28//28 32//32
f 27//27 32//32 31//31
f 28//28 25//25 29//29
f 28//28 29//29 32//32
f 33//33 35//35 34//34
f 33//33 36//36 35//35
f 37//37 38//38 39//39
f 37//37 39//39 40//40
f 33//33 34//34 38//38
f 33//33 38//38 37//37
f 34//34 35//35 39//39
f 34//34 39//39 38//38
f 35//35 36//36 40//40
f 35//35 40//40 39//39
f 36//36 33//33 37//37
f 36//36 37//37 40//40
f 41//41 43//43 42//42
f 41//41 44//44 43//43
f 45//45 46//46 47//47
f 45//45 47//47 48//48
f 41//41 42//42 46//46
f 41//41 46//46 45//45
f 42//42 43//43 47//47
f 42//42 47//47 46//46
f 43//43 44//44 48//48
f 43//43 48//48 47//47
f 44//44 41//41 45//45
f 44//44 45//45 48//48
f 49//49 51//51 50//50
f 49//49 52//52 51//51
f 53//53 54//54 55//55
f 53//53 55//55 56//56
f 49//49 50//50 54//54
f 49//49 54//54 53//53
f 50//50 51//51 55//55
f 50//50 55//55 54//54
f 51//51 52//52 56//56
f 51//51 56//56 55//55
f 52//52 49//49 53//53
f 52//52 53//53 56//56
f 57//57 59//59 58//58
f 57//57 60//60 59//59
f 61//61 62//62 63//63
f 61//61 63//63 64//64
f 57//57 58//58 62//62
f 57//57 62//62 61//61
f 58//58 59//59 63//63
f 58//58 63//63 62//62
f 59//59 60//60 64//64
f 59//59 64//64 63//63
f 60//60 57//57 61//61
f 60//60 61//61 64//64
