# NCA starship Z-up queen
o queen
v 0.900000 0.000000 0.000000
v 0.779423 0.450000 0.000000
v 0.450000 0.779423 0.000000
v 0.000000 0.900000 0.000000
v -0.450000 0.779423 0.000000
v -0.779423 0.450000 0.000000
v -0.900000 0.000000 0.000000
v -0.779423 -0.450000 0.000000
v -0.450000 -0.779423 0.000000
v -0.000000 -0.900000 0.000000
v 0.450000 -0.779423 0.000000
v 0.779423 -0.450000 0.000000
v 0.850000 0.000000 0.250000
v 0.736122 0.425000 0.250000
v 0.425000 0.736122 0.250000
v 0.000000 0.850000 0.250000
v -0.425000 0.736122 0.250000
v -0.736122 0.425000 0.250000
v -0.850000 0.000000 0.250000
v -0.736122 -0.425000 0.250000
v -0.425000 -0.736122 0.250000
v -0.000000 -0.850000 0.250000
v 0.425000 -0.736122 0.250000
v 0.736122 -0.425000 0.250000
v 0.000000 0.000000 0.000000
v 0.000000 0.000000 0.250000
v -0.900000 -0.900000 0.325000
v 0.900000 -0.900000 0.325000
v 0.900000 0.900000 0.325000
v -0.900000 0.900000 0.325000
v -0.900000 -0.900000 0.675000
v 0.900000 -0.900000 0.675000
v 0.900000 0.900000 0.675000
v -0.900000 0.900000 0.675000
v 0.700000 0.000000 0.700000
v 0.606218 0.350000 0.700000
v 0.350000 0.606218 0.700000
v 0.000000 0.700000 0.700000
v -0.350000 0.606218 0.700000
v -0.606218 0.350000 0.700000
v -0.700000 0.000000 0.700000
v -0.606218 -0.350000 0.700000
v -0.350000 -0.606218 0.700000
v -0.000000 -0.700000 0.700000
v 0.350000 -0.606218 0.700000
v 0.606218 -0.350000 0.700000
v 0.500000 0.000000 1.000000
v 0.433013 0.250000 1.000000
v 0.250000 0.433013 1.000000
v 0.000000 0.500000 1.000000
v -0.250000 0.433013 1.000000
v -0.433013 0.250000 1.000000
v -0.500000 0.000000 1.000000
v -0.433013 -0.250000 1.000000
v -0.250000 -0.433013 1.000000
v -0.000000 -0.500000 1.000000
v 0.250000 -0.433013 1.000000
v 0.433013 -0.250000 1.000000
v 0.000000 0.000000 0.700000
v 0.000000 0.000000 1.000000
v 0.250000 0.000000 1.000000
v 0.176777 0.176777 1.000000
v 0.000000 0.250000 1.000000
v -0.176777 0.176777 1.000000
v -0.250000 0.000000 1.000000
v -0.176777 -0.176777 1.000000
v -0.000000 -0.250000 1.000000
v 0.176777 -0.176777 1.000000
v 0.150000 0.000000 1.800000
v 0.106066 0.106066 1.800000
v 0.000000 0.150000 1.800000
v -0.106066 0.106066 1.800000
v -0.150000 0.000000 1.800000
v -0.106066 -0.106066 1.800000
v -0.000000 -0.150000 1.800000
v 0.106066 -0.106066 1.800000
v 0.000000 0.000000 1.000000
v 0.000000 0.000000 1.800000
v 0.150000 0.000000 1.800000
v 0.075000 0.129904 1.800000
v -0.075000 0.129904 1.800000
v -0.150000 0.000000 1.800000
v -0.075000 -0.129904 1.800000
v 0.075000 -0.129904 1.800000
v 0.080000 0.000000 2.150000
v 0.040000 0.069282 2.150000
v -0.040000 0.069282 2.150000
v -0.080000 0.000000 2.150000
v -0.040000 -0.069282 2.150000
v 0.040000 -0.069282 2.150000
v 0.000000 0.000000 1.800000
v 0.000000 0.000000 2.150000
v 0.575000 0.575000 0.600000
v 0.825000 0.575000 0.600000
v 0.825000 0.825000 0.600000
v 0.575000 0.825000 0.600000
v 0.575000 0.575000 1.200000
v 0.825000 0.575000 1.200000
v 0.825000 0.825000 1.200000
v 0.575000 0.825000 1.200000
v -0.825000 0.575000 0.600000
v -0.575000 0.575000 0.600000
v -0.575000 0.825000 0.600000
v -0.825000 0.825000 0.600000
v -0.825000 0.575000 1.200000
v -0.575000 0.575000 1.200000
v -0.575000 0.825000 1.200000
v -0.825000 0.825000 1.200000
v 0.575000 -0.825000 0.600000
v 0.825000 -0.825000 0.600000
v 0.825000 -0.575000 0.600000
v 0.575000 -0.575000 0.600000
v 0.575000 -0.825000 1.200000
v 0.825000 -0.825000 1.200000
v 0.825000 -0.575000 1.200000
v 0.575000 -0.575000 1.200000
v -0.825000 -0.825000 0.600000
v -0.575000 -0.825000 0.600000
v -0.575000 -0.575000 0.600000
v -0.825000 -0.575000 0.600000
v -0.825000 -0.825000 1.200000
v -0.575000 -0.825000 1.200000
v -0.575000 -0.575000 1.200000
v -0.825000 -0.575000 1.200000
v -1.000000 -0.200000 0.290000
v 1.000000 -0.200000 0.290000
v 1.000000 0.200000 0.290000
v -1.000000 0.200000 0.290000
v -1.000000 -0.200000 0.410000
v 1.000000 -0.200000 0.410000
v 1.000000 0.200000 0.410000
v -1.000000 0.200000 0.410000
v -0.200000 -1.000000 0.290000
v 0.200000 -1.000000 0.290000
v 0.200000 1.000000 0.290000
v -0.200000 1.000000 0.290000
v -0.200000 -1.000000 0.410000
v 0.200000 -1.000000 0.410000
v 0.200000 1.000000 0.410000
v -0.200000 1.000000 0.410000
vn 0.890542 0.079540 -0.447894
vn 0.731462 0.514155 -0.447894
vn 0.376387 0.811002 -0.447894
vn -0.079540 0.890542 -0.447894
vn -0.514155 0.731462 -0.447894
vn -0.811002 0.376387 -0.447894
vn -0.890542 -0.079540 -0.447894
vn -0.731462 -0.514155 -0.447894
vn -0.376387 -0.811002 -0.447894
vn 0.079540 -0.890542 -0.447894
vn 0.514155 -0.731462 -0.447894
vn 0.811002 -0.376387 -0.447894
vn 0.740581 -0.066146 0.668704
vn 0.674435 0.313006 0.668704
vn 0.427575 0.608289 0.668704
vn 0.066146 0.740581 0.668704
vn -0.313006 0.674435 0.668704
vn -0.608289 0.427575 0.668704
vn -0.740581 0.066146 0.668704
vn -0.674435 -0.313006 0.668704
vn -0.427575 -0.608289 0.668704
vn -0.066146 -0.740581 0.668704
vn 0.313006 -0.674435 0.668704
vn 0.608289 -0.427575 0.668704
vn 0.000000 0.000000 -1.000000
vn 0.000000 0.000000 1.000000
vn -0.333333 -0.666667 -0.666667
vn 0.816497 -0.408248 -0.408248
vn 0.333333 0.666667 -0.666667
vn -0.816497 0.408248 -0.408248
vn -0.666667 -0.333333 0.666667
vn 0.408248 -0.816497 0.408248
vn 0.666667 0.333333 0.666667
vn -0.408248 0.816497 0.408248
vn 0.984485 0.087931 -0.151845
vn 0.808624 0.568393 -0.151845
vn 0.416092 0.896555 -0.151845
vn -0.087931 0.984485 -0.151845
vn -0.568393 0.808624 -0.151845
vn -0.896555 0.416092 -0.151845
vn -0.984485 -0.087931 -0.151845
vn -0.808624 -0.568393 -0.151845
vn -0.416092 -0.896555 -0.151845
vn 0.087931 -0.984485 -0.151845
vn 0.568393 -0.808624 -0.151845
vn 0.896555 -0.416092 -0.151845
vn 0.557205 -0.049768 0.828882
vn 0.507437 0.235503 0.828882
vn 0.321702 0.457670 0.828882
vn 0.049768 0.557205 0.828882
vn -0.235503 0.507437 0.828882
vn -0.457670 0.321702 0.828882
vn -0.557205 0.049768 0.828882
vn -0.507437 -0.235503 0.828882
vn -0.321702 -0.457670 0.828882
vn -0.049768 -0.557205 0.828882
vn 0.235503 -0.507437 0.828882
vn 0.457670 -0.321702 0.828882
vn 0.000000 0.000000 -1.000000
vn 0.000000 0.000000 1.000000
vn 0.851030 0.117503 -0.511802
vn 0.518682 0.684856 -0.511802
vn -0.117503 0.851030 -0.511802
vn -0.684856 0.518682 -0.511802
vn -0.851030 -0.117503 -0.511802
vn -0.518682 -0.684856 -0.511802
vn 0.117503 -0.851030 -0.511802
vn 0.684856 -0.518682 -0.511802
vn 0.757243 -0.104553 0.644710
vn 0.609382 0.461521 0.644710
vn 0.104553 0.757243 0.644710
vn -0.461521 0.609382 0.644710
vn -0.757243 0.104553 0.644710
vn -0.609382 -0.461521 0.644710
vn -0.104553 -0.757243 0.644710
vn 0.461521 -0.609382 0.644710
vn 0.000000 0.000000 -1.000000
vn 0.000000 0.000000 1.000000
vn 0.852833 0.164128 -0.495719
vn 0.284278 0.820639 -0.495719
vn -0.568555 0.656511 -0.495719
vn -0.852833 -0.164128 -0.495719
vn -0.284278 -0.820639 -0.495719
vn 0.568555 -0.656511 -0.495719
vn 0.707122 -0.136086 0.693872
vn 0.471415 0.544343 0.693872
vn -0.235707 0.680429 0.693872
vn -0.707122 0.136086 0.693872
vn -0.471415 -0.544343 0.693872
vn 0.235707 -0.680429 0.693872
vn 0.000000 0.000000 -1.000000
vn 0.000000 0.000000 1.000000
vn -0.333333 -0.666667 -0.666667
vn 0.816497 -0.408248 -0.408248
vn 0.333333 0.666667 -0.666667
vn -0.816497 0.408248 -0.408248
vn -0.666667 -0.333333 0.666667
vn 0.408248 -0.816497 0.408248
vn 0.666667 0.333333 0.666667
vn -0.408248 0.816497 0.408248
vn -0.333333 -0.666667 -0.666667
vn 0.816497 -0.408248 -0.408248
vn 0.333333 0.666667 -0.666667
vn -0.816497 0.408248 -0.408248
vn -0.666667 -0.333333 0.666667
vn 0.408248 -0.816497 0.408248
vn 0.666667 0.333333 0.666667
vn -0.408248 0.816497 0.408248
vn -0.333333 -0.666667 -0.666667
vn 0.816497 -0.408248 -0.408248
vn 0.333333 0.666667 -0.666667
vn -0.816497 0.408248 -0.408248
vn -0.666667 -0.333333 0.666667
vn 0.408248 -0.816497 0.408248
vn 0.666667 0.333333 0.666667
vn -0.408248 0.816497 0.408248
vn -0.333333 -0.666667 -0.666667
vn 0.816497 -0.408248 -0.408248
vn 0.333333 0.666667 -0.666667
vn -0.816497 0.408248 -0.408248
vn -0.666667 -0.333333 0.666667
vn 0.408248 -0.816497 0.408248
vn 0.666667 0.333333 0.666667
vn -0.408248 0.816497 0.408248
vn -0.333333 -0.666667 -0.666667
vn 0.816497 -0.408248 -0.408248
vn 0.333333 0.666667 -0.666667
vn -0.816497 0.408248 -0.408248
vn -0.666667 -0.333333 0.666667
vn 0.408248 -0.816497 0.408248
vn 0.666667 0.333333 0.666667
vn -0.408248 0.816497 0.408248
vn -0.333333 -0.666667 -0.666667
vn 0.816497 -0.408248 -0.408248
vn 0.333333 0.666667 -0.666667
vn -0.816497 0.408248 -0.408248
vn -0.666667 -0.333333 0.666667
vn 0.408248 -0.816497 0.408248
vn 0.666667 0.333333 0.666667
vn -0.408248 0.816497 0.408248
f 1//1 2//2 14//14
f 1//1 14//14 13//13
f 2//2 3//3 15//15
f 2//2 15//15 14//14
f 3//3 4//4 16//16
f 3//3 16//16 15//15
f 4//4 5//5 17//17
f 4//4 17//17 16//16
f 5//5 6//6 18//18
f 5//5 18//18 17//17
f 6//6 7//7 19//19
f 6//6 19//19 18//18
f 7//7 8//8 20//20
f 7//7 20//20 19//19
f 8//8 9//9 21//21
f 8//8 21//21 20//20
f 9//9 10//10 22//22
f 9//9 22//22 21//21
f 10//10 11//11 23//23
f 10//10 23//23 22//22
f 11//11 12//12 24//24
f 11//11 24//24 23//23
f 12//12 1//1 13//13
f 12//12 13//13 24//24
f 25//25 2//2 1//1
f 26//26 13//13 14//14
f 25//25 3//3 2//2
f 26//26 14//14 15//15
f 25//25 4//4 3//3
f 26//26 15//15 16//16
f 25//25 5//5 4//4
f 26//26 16//16 17//17
f 25//25 6//6 5//5
f 26//26 17//17 18//18
f 25//25 7//7 6//6
f 26//26 18//18 19//19
f 25//25 8//8 7//7
f 26//26 19//19 20//20
f 25//25 9//9 8//8
f 26//26 20//20 21//21
f 25//25 10//10 9//9
f 26//26 21//21 22//22
f 25//25 11//11 10//10
f 26//26 22//22 23//23
f 25//25 12//12 11//11
f 26//26 23//23 24//24
f 25//25 1//1 12//12
f 26//26 24//24 13//13
f 27//27 29//29 28//28
f 27//27 30//30 29//29
f 31//31 32//32 33//33
f 31//31 33//33 34//34
f 27//27 28//28 32//32
f 27//27 32//32 31//31
f 28//28 29//29 33//33
f 28//28 33//33 32//32
f 29//29 30//30 34//34
f 29//29 34//34 33//33
f 30//30 27//27 31//31
f 30//30 31//31 34//34
f 35//35 36//36 48//48
f 35//35 48//48 47//47
f 36//36 37//37 49//49
f 36//36 49//49 48//48
f 37//37 38//38 50//50
f 37//37 50//50 49//49
f 38//38 39//39 51//51
f 38//38 51//51 50//50
f 39//39 40//40 52//52
f 39//39 52//52 51//51
f 40//40 41//41 53//53
f 40//40 53//53 52//52
f 41//41 42//42 54//54
f 41//41 54//54 53//53
f 42//42 43//43 55//55
f 42//42 55//55 54//54
f 43//43 44//44 56//56
f 43//43 56//56 55//55
f 44//44 45//45 57//57
f 44//44 57//57 56//56
f 45//45 46//46 58//58
f 45//45 58//58 57//57
f 46//46 35//35 47//47
f 46//46 47//47 58//58
f 59//59 36//36 35//35
f 60//60 47//47 48//48
f 59//59 37//37 36//36
f 60//60 48//48 49//49
f 59//59 38//38 37//37
f 60//60 49//49 50//50
f 59//59 39//39 38//38
f 60//60 50//50 51//51
f 59//59 40//40 39//39
f 60//60 51//51 52//52
f 59//59 41//41 40//40
f 60//60 52//52 53//53
f 59//59 42//42 41//41
f 60//60 53//53 54//54
f 59//59 43//43 42//42
f 60//60 54//54 55//55
f 59//59 44//44 43//43
f 60//60 55//55 56//56
f 59//59 45//45 44//44
f 60//60 56//56 57//57
f 59//59 46//46 45//45
f 60//60 57//57 58//58
f 59//59 35//35 46//46
f 60//60 58//58 47//47
f 61//61 62//62 70//70
f 61//61 70//70 69//69
f 62//62 63//63 71//71
f 62//62 71//71 70//70
f 63//63 64//64 72//72
f 63//63 72//72 71//71
f 64//64 65//65 73//73
f 64//64 73//73 72//72
f 65//65 66//66 74//74
f 65//65 74//74 73//73
f 66//66 67//67 75//75
f 66//66 75//75 74//74
f 67//67 68//68 76//76
f 67//67 76//76 75//75
f 68//68 61//61 69//69
f 68//68 69//69 76//76
f 77//77 62//62 61//61
f 78//78 69//69 70//70
f 77//77 63//63 62//62
f 78//78 70//70 71//71
f 77//77 64//64 63//63
f 78//78 71//71 72//72
f 77//77 65//65 64//64
f 78//78 72//72 73//73
f 77//77 66//66 65//65
f 78//78 73//73 74//74
f 77//77 67//67 66//66
f 78//78 74//74 75//75
f 77//77 68//68 67//67
f 78//78 75//75 76//76
f 77//77 61//61 68//68
f 78//78 76//76 69//69
f 79//79 80//80 86//86
f 79//79 86//86 85//85
f 80//80 81//81 87//87
f 80//80 87//87 86//86
f 81//81 82//82 88//88
f 81//81 88//88 87//87
f 82//82 83//83 89//89
f 82//82 89//89 88//88
f 83//83 84//84 90//90
f 83//83 90//90 89//89
f 84//84 79//79 85//85
f 84//84 85//85 90//90
f 91//91 80//80 79//79
f 92//92 85//85 86//86
f 91//91 81//81 80//80
f 92//92 86//86 87//87
f 91//91 82//82 81//81
f 92//92 87//87 88//88
f 91//91 83//83 82//82
f 92//92 88//88 89//89
f 91//91 84//84 83//83
f 92//92 89//89 90//90
f 91//91 79//79 84//84
f 92//92 90//90 85//85
f 93//93 95//95 94//94
f 93//93 96//96 95//95
f 97//97 98//98 99//99
f 97//97 99//99 100//100
f 93//93 94//94 98//98
f 93//93 98//98 97//97
f 94//94 95//95 99//99
f 94//94 99//99 98//98
f 95//95 96//96 100//100
f 95//95 100//100 99//99
f 96//96 93//93 97//97
f 96//96 97//97 100//100
f 101//101 103//103 102//102
f 101//101 104//104 103//103
f 105//105 106//106 107//107
f 105//105 107//107 108//108
f 101//101 102//102 106//106
f 101//101 106//106 105//105
f 102//102 103//103 107//107
f 102//102 107//107 106//106
f 103//103 104//104 108//108
f 103//103 108//108 107//107
f 104//104 101//101 105//105
f 104//104 105//105 108//108
f 109//109 111//111 110//110
f 109//109 112//112 111//111
f 113//113 114//114 115//115
f 113//113 115//115 116//116
f 109//109 110//110 114//114
f 109//109 114//114 113//113
f 110//110 111//111 115//115
f 110//110 115//115 114//114
f 111//111 112//112 116//116
f 111//111 116//116 115//115
f 112//112 109//109 113//113
f 112//112 113//113 116//116
f 117//117 119//119 118//118
f 117//117 120//120 119//119
f 121//121 122//122 123//123
f 121//121 123//123 124//124
f 117//117 118//118 122//122
f 117//117 122//122 121//121
f 118//118 119//119 123//123
f 118//118 123//123 122//122
f 119//119 120//120 124//124
f 119//119 124//124 123//123
f 120//120 117//117 121//121
f 120//120 121//121 124//124
f 125//125 127//127 126//126
f 125//125 128//128 127//127
f 129//129 130//130 131//131
f 129//129 131//131 132//132
f 125//125 126//126 130//130
f 125//125 130//130 129//129
f 126//126 127//127 131//131
f 126//126 131//131 130//130
f 127//127 128//128 132//132
f 127//127 132//132 131//131
f 128//128 125//125 129//129
f 128//128 129//129 132//132
f 133//133 135//135 134//134
f 133//133 136//136 135//135
f 137//137 138//138 139//139
f 137//137 139//139 140//140
f 133//133 134//134 138//138
f 133//133 138//138 137//137
f 134//134 135//135 139//139
f 134//134 139//139 138//138
f 135//135 136//136 140//140
f 135//135 140//140 139//139
f 136//136 133//133 137//137
f 136//136 137//137 140//140
