# NCA starship Z-up bishop
o bishop
v 0.400000 0.000000 0.000000
v 0.282843 0.282843 0.000000
v 0.000000 0.400000 0.000000
v -0.282843 0.282843 0.000000
v -0.400000 0.000000 0.000000
v -0.282843 -0.282843 0.000000
v -0.000000 -0.400000 0.000000
v 0.282843 -0.282843 0.000000
v 0.350000 0.000000 0.200000
v 0.247487 0.247487 0.200000
v 0.000000 0.350000 0.200000
v -0.247487 0.247487 0.200000
v -0.350000 0.000000 0.200000
v -0.247487 -0.247487 0.200000
v -0.000000 -0.350000 0.200000
v 0.247487 -0.247487 0.200000
v 0.000000 0.000000 0.000000
v 0.000000 0.000000 0.200000
v 0.196000 0.000000 0.200000
v 0.138593 0.138593 0.200000
v 0.000000 0.196000 0.200000
v -0.138593 0.138593 0.200000
v -0.196000 0.000000 0.200000
v -0.138593 -0.138593 0.200000
v -0.000000 -0.196000 0.200000
v 0.138593 -0.138593 0.200000
v 0.056000 0.000000 2.000000
v 0.039598 0.039598 2.000000
v 0.000000 0.056000 2.000000
v -0.039598 0.039598 2.000000
v -0.056000 0.000000 2.000000
v -0.039598 -0.039598 2.000000
v -0.000000 -0.056000 2.000000
v 0.039598 -0.039598 2.000000
v 0.000000 0.000000 0.200000
v 0.000000 0.000000 2.000000
v -0.450000 -0.125000 0.770000
v 0.450000 -0.125000 0.770000
v 0.450000 0.125000 0.770000
v -0.450000 0.125000 0.770000
v -0.450000 -0.125000 0.830000
v 0.450000 -0.125000 0.830000
v 0.450000 0.125000 0.830000
v -0.450000 0.125000 0.830000
v -0.250000 -0.090000 1.175000
v 0.250000 -0.090000 1.175000
v 0.250000 0.090000 1.175000
v -0.250000 0.090000 1.175000
v -0.250000 -0.090000 1.225000
v 0.250000 -0.090000 1.225000
v 0.250000 0.090000 1.225000
v -0.250000 0.090000 1.225000
v 0.080000 0.000000 2.000000
v 0.040000 0.069282 2.000000
v -0.040000 0.069282 2.000000
v -0.080000 0.000000 2.000000
v -0.040000 -0.069282 2.000000
v 0.040000 -0.069282 2.000000
v 0.020000 0.000000 2.400000
v 0.010000 0.017321 2.400000
v -0.010000 0.017321 2.400000
v -0.020000 0.000000 2.400000
v -0.010000 -0.017321 2.400000
v 0.010000 -0.017321 2.400000
v 0.000000 0.000000 2.000000
v 0.000000 0.000000 2.400000
v -0.175000 -0.175000 0.300000
v 0.175000 -0.175000 0.300000
v 0.175000 0.175000 0.300000
v -0.175000 0.175000 0.300000
v -0.175000 -0.175000 0.700000
v 0.175000 -0.175000 0.700000
v 0.175000 0.175000 0.700000
v -0.175000 0.175000 0.700000
vn 0.890961 0.123016 -0.437099
vn 0.543019 0.716990 -0.437099
vn -0.123016 0.890961 -0.437099
vn -0.716990 0.543019 -0.437099
vn -0.890961 -0.123016 -0.437099
vn -0.543019 -0.716990 -0.437099
vn 0.123016 -0.890961 -0.437099
vn 0.716990 -0.543019 -0.437099
vn 0.707047 -0.097623 0.700396
vn 0.568988 0.430928 0.700396
vn 0.097623 0.707047 0.700396
vn -0.430928 0.568988 0.700396
vn -0.707047 0.097623 0.700396
vn -0.568988 -0.430928 0.700396
vn -0.097623 -0.707047 0.700396
vn 0.430928 -0.568988 0.700396
vn 0.000000 0.000000 -1.000000
vn 0.000000 0.000000 1.000000
vn 0.834504 0.115221 -0.538820
vn 0.508610 0.671557 -0.538820
vn -0.115221 0.834504 -0.538820
vn -0.671557 0.508610 -0.538820
vn -0.834504 -0.115221 -0.538820
vn -0.508610 -0.671557 -0.538820
vn 0.115221 -0.834504 -0.538820
vn 0.671557 -0.508610 -0.538820
vn 0.775908 -0.107131 0.621683
vn 0.624402 0.472897 0.621683
vn 0.107131 0.775908 0.621683
vn -0.472897 0.624402 0.621683
vn -0.775908 0.107131 0.621683
vn -0.624402 -0.472897 0.621683
vn -0.107131 -0.775908 0.621683
vn 0.472897 -0.624402 0.621683
vn 0.000000 0.000000 -1.000000
vn 0.000000 0.000000 1.000000
vn -0.333333 -0.666667 -0.666667
vn 0.816497 -0.408248 -0.408248
vn 0.333333 0.666667 -0.666667
vn -0.816497 0.408248 -0.408248
vn -0.666667 -0.333333 0.666667
vn 0.408248 -0.816497 0.408248
vn 0.666667 0.333333 0.666667
vn -0.408248 0.816497 0.408248
vn -0.333333 -0.666667 -0.666667
vn 0.816497 -0.408248 -0.408248
vn 0.333333 0.666667 -0.666667
vn -0.816497 0.408248 -0.408248
vn -0.666667 -0.333333 0.666667
vn 0.408248 -0.816497 0.408248
vn 0.666667 0.333333 0.666667
vn -0.408248 0.816497 0.408248
vn 0.836462 0.160977 -0.523849
vn 0.278821 0.804886 -0.523849
vn -0.557641 0.643908 -0.523849
vn -0.836462 -0.160977 -0.523849
vn -0.278821 -0.804886 -0.523849
vn 0.557641 -0.643908 -0.523849
vn 0.726431 -0.139802 0.672870
vn 0.484287 0.559207 0.672870
vn -0.242144 0.699008 0.672870
vn -0.726431 0.139802 0.672870
vn -0.484287 -0.559207 0.672870
vn 0.242144 -0.699008 0.672870
vn 0.000000 0.000000 -1.000000
vn 0.000000 0.000000 1.000000
vn -0.333333 -0.666667 -0.666667
vn 0.816497 -0.408248 -0.408248
vn 0.333333 0.666667 -0.666667
vn -0.816497 0.408248 -0.408248
vn -0.666667 -0.333333 0.666667
vn 0.408248 -0.816497 0.408248
vn 0.666667 0.333333 0.666667
vn -0.408248 0.816497 0.408248
f 1//1 2//2 10//10
f 1//1 10//10 9//9
f 2//2 3//3 11//11
f 2//2 11//11 10//10
f 3//3 4//4 12//12
f 3//3 12//12 11//11
f 4//4 5//5 13//13
f 4//4 13//13 12//12
f 5//5 6//6 14//14
f 5//5 14//14 13//13
f 6//6 7//7 15//15
f 6//6 15//15 14//14
f 7//7 8//8 16//16
f 7//7 16//16 15//15
f 8//8 1//1 9//9
f 8//8 9//9 16//16
f 17//17 2//2 1//1
f 18//18 9//9 10//10
f 17//17 3//3 2//2
f 18//18 10//10 11//11
f 17//17 4//4 3//3
f 18//18 11//11 12//12
f 17//17 5//5 4//4
f 18//18 12//12 13//13
f 17//17 6//6 5//5
f 18//18 13//13 14//14
f 17//17 7//7 6//6
f 18//18 14//14 15//15
f 17//17 8//8 7//7
f 18//18 15//15 16//16
f 17//17 1//1 8//8
f 18//18 16//16 9//9
f 19//19 20//20 28//28
f 19//19 28//28 27//27
f 20//20 21//21 29//29
f 20//20 29//29 28//28
f 21//21 22//22 30//30
f 21//21 30//30 29//29
f 22//22 23//23 31//31
f 22//22 31//31 30//30
f 23//23 24//24 32//32
f 23//23 32//32 31//31
f 24//24 25//25 33//33
f 24//24 33//33 32//32
f 25//25 26//26 34//34
f 25//25 34//34 33//33
f 26//26 19//19 27//27
f 26//26 27//27 34//34
f 35//35 20//20 19//19
f 36//36 27//27 28//28
f 35//35 21//21 20//20
f 36//36 28//28 29//29
f 35//35 22//22 21//21
f 36//36 29//29 30//30
f 35//35 23//23 22//22
f 36//36 30//30 31//31
f 35//35 24//24 23//23
f 36//36 31//31 32//32
f 35//35 25//25 24//24
f 36//36 32//32 33//33
f 35//35 26//26 25//25
f 36//36 33//33 34//34
f 35//35 19//19 26//26
f 36//36 34//34 27//27
f 37//37 39//39 38//38
f 37//37 40//40 39//39
f 41//41 42//42 43//43
f 41//41 43//43 44//44
f 37//37 38//38 42//42
f 37//37 42//42 41//41
f 38//38 39//39 43//43
f 38//38 43//43 42//42
f 39//39 40//40 44//44
f 39//39 44//44 43//43
f 40//40 37//37 41//41
f 40//40 41//41 44//44
f 45//45 47//47 46//46
f 45//45 48//48 47//47
f 49//49 50//50 51//51
f 49//49 51//51 52//52
f 45//45 46//46 50//50
f 45//45 50//50 49//49
f 46//46 47//47 51//51
f 46//46 51//51 50//50
f 47//47 48//48 52//52
f 47//47 52//52 51//51
f 48//48 45//45 49//49
f 48//48 49//49 52//52
f 53//53 54//54 60//60
f 53//53 60//60 59//59
f 54//54 55//55 61//61
f 54//54 61//61 60//60
f 55//55 56//56 62//62
f 55//55 62//62 61//61
f 56//56 57//57 63//63
f 56//56 63//63 62//62
f 57//57 58//58 64//64
f 57//57 64//64 63//63
f 58//58 53//53 59//59
f 58//58 59//59 64//64
f 65//65 54//54 53//53
f 66//66 59//59 60//60
f 65//65 55//55 54//54
f 66//66 60//60 61//61
f 65//65 56//56 55//55
f 66//66 61//61 62//62
f 65//65 57//57 56//56
f 66//66 62//62 63//63
f 65//65 58//58 57//57
f 66//66 63//63 64//64
f 65//65 53//53 58//58
f 66//66 64//64 59//59
f 67//67 69//69 68//68
f 67//67 70//70 69//69
f 71//71 72//72 73//73
f 71//71 73//73 74//74
f 67//67 68//68 72//72
f 67//67 72//72 71//71
f 68//68 69//69 73//73
f 68//68 73//73 72//72
f 69//69 70//70 74//74
f 69//69 74//74 73//73
f 70//70 67//67 71//71
f 70//70 71//71 74//74
