# NCA starship Z-up pawn
o pawn
v 0.550000 0.000000 0.000000
v 0.388909 0.388909 0.000000
v 0.000000 0.550000 0.000000
v -0.388909 0.388909 0.000000
v -0.550000 0.000000 0.000000
v -0.388909 -0.388909 0.000000
v -0.000000 -0.550000 0.000000
v 0.388909 -0.388909 0.000000
v 0.450000 0.000000 0.250000
v 0.318198 0.318198 0.250000
v 0.000000 0.450000 0.250000
v -0.318198 0.318198 0.250000
v -0.450000 0.000000 0.250000
v -0.318198 -0.318198 0.250000
v -0.000000 -0.450000 0.250000
v 0.318198 -0.318198 0.250000
v 0.000000 0.000000 0.000000
v 0.000000 0.000000 0.250000
v 0.320000 0.000000 0.250000
v 0.226274 0.339411 0.250000
v 0.000000 0.480000 0.250000
v -0.226274 0.339411 0.250000
v -0.320000 0.000000 0.250000
v -0.226274 -0.339411 0.250000
v -0.000000 -0.480000 0.250000
v 0.226274 -0.339411 0.250000
v 0.120000 0.000000 1.100000
v 0.084853 0.127279 1.100000
v 0.000000 0.180000 1.100000
v -0.084853 0.127279 1.100000
v -0.120000 0.000000 1.100000
v -0.084853 -0.127279 1.100000
v -0.000000 -0.180000 1.100000
v 0.084853 -0.127279 1.100000
v 0.000000 0.000000 0.250000
v 0.000000 0.000000 1.100000
v -0.700000 -0.175000 0.510000
v 0.700000 -0.175000 0.510000
v 0.700000 0.175000 0.510000
v -0.700000 0.175000 0.510000
v -0.700000 -0.175000 0.590000
v 0.700000 -0.175000 0.590000
v 0.700000 0.175000 0.590000
v -0.700000 0.175000 0.590000
v -0.100000 -0.600000 0.625000
v 0.100000 -0.600000 0.625000
v 0.100000 -0.100000 0.625000
v -0.100000 -0.100000 0.625000
v -0.100000 -0.600000 0.775000
v 0.100000 -0.600000 0.775000
v 0.100000 -0.100000 0.775000
v -0.100000 -0.100000 0.775000
v 0.425000 0.025000 0.275000
v 0.575000 0.025000 0.275000
v 0.575000 0.175000 0.275000
v 0.425000 0.175000 0.275000
v 0.425000 0.025000 0.525000
v 0.575000 0.025000 0.525000
v 0.575000 0.175000 0.525000
v 0.425000 0.175000 0.525000
v -0.575000 0.025000 0.275000
v -0.425000 0.025000 0.275000
v -0.425000 0.175000 0.275000
v -0.575000 0.175000 0.275000
v -0.575000 0.025000 0.525000
v -0.425000 0.025000 0.525000
v -0.425000 0.175000 0.525000
v -0.575000 0.175000 0.525000
v 0.120000 0.000000 1.100000
v 0.060000 0.103923 1.100000
v -0.060000 0.103923 1.100000
v -0.120000 0.000000 1.100000
v -0.060000 -0.103923 1.100000
v 0.060000 -0.103923 1.100000
v 0.050000 0.000000 1.350000
v 0.025000 0.043301 1.350000
v -0.025000 0.043301 1.350000
v -0.050000 0.000000 1.350000
v -0.025000 -0.043301 1.350000
v 0.025000 -0.043301 1.350000
v 0.000000 0.000000 1.100000
v 0.000000 0.000000 1.350000
vn 0.930307 0.128449 -0.343555
vn 0.566999 0.748653 -0.343555
vn -0.128449 0.930307 -0.343555
vn -0.748653 0.566999 -0.343555
vn -0.930307 -0.128449 -0.343555
vn -0.566999 -0.748653 -0.343555
vn 0.128449 -0.930307 -0.343555
vn 0.748653 -0.566999 -0.343555
vn 0.647347 -0.089380 0.756937
vn 0.520944 0.394542 0.756937
vn 0.089380 0.647347 0.756937
vn -0.394542 0.520944 0.756937
vn -0.647347 0.089380 0.756937
vn -0.520944 -0.394542 0.756937
vn -0.089380 -0.647347 0.756937
vn 0.394542 -0.520944 0.756937
vn 0.000000 0.000000 -1.000000
vn 0.000000 0.000000 1.000000
vn 0.900556 0.082894 -0.426764
vn 0.657052 0.635414 -0.405625
vn -0.184472 0.890709 -0.415460
vn -0.791625 0.442266 -0.421581
vn -0.900556 -0.082894 -0.426764
vn -0.657052 -0.635414 -0.405625
vn 0.184472 -0.890709 -0.415460
vn 0.791625 -0.442266 -0.421581
vn 0.725379 -0.066769 0.685104
vn 0.617657 0.345073 0.706700
vn 0.133210 0.643193 0.754028
vn -0.500744 0.484254 0.717463
vn -0.725379 0.066769 0.685104
vn -0.617657 -0.345073 0.706700
vn -0.133210 -0.643193 0.754028
vn 0.500744 -0.484254 0.717463
vn 0.000000 0.000000 -1.000000
vn 0.000000 0.000000 1.000000
vn -0.333333 -0.666667 -0.666667
vn 0.816497 -0.408248 -0.408248
vn 0.333333 0.666667 -0.666667
vn -0.816497 0.408248 -0.408248
vn -0.666667 -0.333333 0.666667
vn 0.408248 -0.816497 0.408248
vn 0.666667 0.333333 0.666667
vn -0.408248 0.816497 0.408248
vn -0.333333 -0.666667 -0.666667
vn 0.816497 -0.408248 -0.408248
vn 0.333333 0.666667 -0.666667
vn -0.816497 0.408248 -0.408248
vn -0.666667 -0.333333 0.666667
vn 0.408248 -0.816497 0.408248
vn 0.666667 0.333333 0.666667
vn -0.408248 0.816497 0.408248
vn -0.333333 -0.666667 -0.666667
vn 0.816497 -0.408248 -0.408248
vn 0.333333 0.666667 -0.666667
vn -0.816497 0.408248 -0.408248
vn -0.666667 -0.333333 0.666667
vn 0.408248 -0.816497 0.408248
vn 0.666667 0.333333 0.666667
vn -0.408248 0.816497 0.408248
vn -0.333333 -0.666667 -0.666667
vn 0.816497 -0.408248 -0.408248
vn 0.333333 0.666667 -0.666667
vn -0.816497 0.408248 -0.408248
vn -0.666667 -0.333333 0.666667
vn 0.408248 -0.816497 0.408248
vn 0.666667 0.333333 0.666667
vn -0.408248 0.816497 0.408248
vn 0.877297 0.168836 -0.449272
vn 0.292432 0.844179 -0.449272
vn -0.584864 0.675343 -0.449272
vn -0.877297 -0.168836 -0.449272
vn -0.292432 -0.844179 -0.449272
vn 0.584864 -0.675343 -0.449272
vn 0.676285 -0.130151 0.725051
vn 0.450857 0.520604 0.725051
vn -0.225428 0.650755 0.725051
vn -0.676285 0.130151 0.725051
vn -0.450857 -0.520604 0.725051
vn 0.225428 -0.650755 0.725051
vn 0.000000 0.000000 -1.000000
vn 0.000000 0.000000 1.000000
f 1//1 2//2 10//10
f 1//1 10//10 9//9
f 2//2 3//3 11//11
f 2//2 11//11 10//10
f 3//3 4//4 12//12
f 3//3 12//12 11//11
f 4//4 5//5 13//13
f 4//4 13//13 12//12
f 5//5 6//6 14//14
f 5//5 14//14 13//13
f 6//6 7//7 15//15
f 6//6 15//15 14//14
f 7//7 8//8 16//16
f 7//7 16//16 15//15
f 8//8 1//1 9//9
f 8//8 9//9 16//16
f 17//17 2//2 1//1
f 18//18 9//9 10//10
f 17//17 3//3 2//2
f 18//18 10//10 11//11
f 17//17 4//4 3//3
f 18//18 11//11 12//12
f 17//17 5//5 4//4
f 18//18 12//12 13//13
f 17//17 6//6 5//5
f 18//18 13//13 14//14
f 17//17 7//7 6//6
f 18//18 14//14 15//15
f 17//17 8//8 7//7
f 18//18 15//15 16//16
f 17//17 1//1 8//8
f 18//18 16//16 9//9
f 19//19 20//20 28//28
f 19//19 28//28 27//27
f 20//20 21//21 29//29
f 20//20 29//29 28//28
f 21//21 22//22 30//30
f 21//21 30//30 29//29
f 22//22 23//23 31//31
f 22//22 31//31 30//30
f 23//23 24//24 32//32
f 23//23 32//32 31//31
f 24//24 25//25 33//33
f 24//24 33//33 32//32
f 25//25 26//26 34//34
f 25//25 34//34 33//33
f 26//26 19//19 27//27
f 26//26 27//27 34//34
f 35//35 20//20 19//19
f 36//36 27//27 28//28
f 35//35 21//21 20//20
f 36//36 28//28 29//29
f 35//35 22//22 21//21
f 36//36 29//29 30//30
f 35//35 23//23 22//22
f 36//36 30//30 31//31
f 35//35 24//24 23//23
f 36//36 31//31 32//32
f 35//35 25//25 24//24
f 36//36 32//32 33//33
f 35//35 26//26 25//25
f 36//36 33//33 34//34
f 35//35 19//19 26//26
f 36//36 34//34 27//27
f 37//37 39//39 38//38
f 37//37 40//40 39//39
f 41//41 42//42 43//43
f 41//41 43//43 44//44
f 37//37 38//38 42//42
f 37//37 42//42 41//41
f 38//38 39//39 43//43
f 38//38 43//43 42//42
f 39//39 40//40 44//44
f 39//39 44//44 43//43
f 40//40 37//37 41//41
f 40//40 41//41 44//44
f 45//45 47//47 46//46
f 45//45 48//48 47//47
f 49//49 50//50 51//51
f 49//49 51//51 52//52
f 45//45 46//46 50//50
f 45//45 50//50 49//49
f 46//46 47//47 51//51
f 46//46 51//51 50//50
f 47//47 48//48 52//52
f 47//47 52//52 51//51
f 48//48 45//45 49//49
f 48//48 49//49 52//52
f 53//53 55//55 54//54
f 53//53 56//56 55//55
f 57//57 58//58 59//59
f 57//57 59//59 60//60
f 53//53 54//54 58//58
f 53//53 58//58 57//57
f 54//54 55//55 59//59
f 54//54 59//59 58//58
f 55//55 56//56 60//60
f 55//55 60//60 59//59
f 56//56 53//53 57//57
f 56//56 57//57 60//60
f 61//61 63//63 62//62
f 61//61 64//64 63//63
f 65//65 66//66 67//67
f 65//65 67//67 68//68
f 61//61 62//62 66//66
f 61//61 66//66 65//65
f 62//62 63//63 67//67
f 62//62 67//67 66//66
f 63//63 64//64 68//68
f 63//63 68//68 67//67
f 64//64 61//61 65//65
f 64//64 65//65 68//68
f 69//69 70//70 76//76
f 69//69 76//76 75//75
f 70//70 71//71 77//77
f 70//70 77//77 76//76
f 71//71 72//72 78//78
f 71//71 78//78 77//77
f 72//72 73//73 79//79
f 72//72 79//79 78//78
f 73//73 74//74 80//80
f 73//73 80//80 79//79
f 74//74 69//69 75//75
f 74//74 75//75 80//80
f 81//81 70//70 69//69
f 82//82 75//75 76//76
f 81//81 71//71 70//70
f 82//82 76//76 77//77
f 81//81 72//72 71//71
f 82//82 77//77 78//78
f 81//81 73//73 72//72
f 82//82 78//78 79//79
f 81//81 74//74 73//73
f 82//82 79//79 80//80
f 81//81 69//69 74//74
f 82//82 80//80 75//75
