# NCA starship Z-up rook
o rook
v -0.600000 -0.600000 0.000000
v 0.600000 -0.600000 0.000000
v 0.600000 0.600000 0.000000
v -0.600000 0.600000 0.000000
v -0.600000 -0.600000 0.800000
v 0.600000 -0.600000 0.800000
v 0.600000 0.600000 0.800000
v -0.600000 0.600000 0.800000
v -0.500000 -0.500000 0.800000
v 0.500000 -0.500000 0.800000
v 0.500000 0.500000 0.800000
v -0.500000 0.500000 0.800000
v -0.500000 -0.500000 1.100000
v 0.500000 -0.500000 1.100000
v 0.500000 0.500000 1.100000
v -0.500000 0.500000 1.100000
v -0.350000 -0.350000 1.100000
v 0.350000 -0.350000 1.100000
v 0.350000 0.350000 1.100000
v -0.350000 0.350000 1.100000
v -0.350000 -0.350000 1.500000
v 0.350000 -0.350000 1.500000
v 0.350000 0.350000 1.500000
v -0.350000 0.350000 1.500000
v 0.325000 0.325000 1.500000
v 0.575000 0.325000 1.500000
v 0.575000 0.575000 1.500000
v 0.325000 0.575000 1.500000
v 0.325000 0.325000 1.800000
v 0.575000 0.325000 1.800000
v 0.575000 0.575000 1.800000
v 0.325000 0.575000 1.800000
v -0.575000 0.325000 1.500000
v -0.325000 0.325000 1.500000
v -0.325000 0.575000 1.500000
v -0.575000 0.575000 1.500000
v -0.575000 0.325000 1.800000
v -0.325000 0.325000 1.800000
v -0.325000 0.575000 1.800000
v -0.575000 0.575000 1.800000
v 0.325000 -0.575000 1.500000
v 0.575000 -0.575000 1.500000
v 0.575000 -0.325000 1.500000
v 0.325000 -0.325000 1.500000
v 0.325000 -0.575000 1.800000
v 0.575000 -0.575000 1.800000
v 0.575000 -0.325000 1.800000
v 0.325000 -0.325000 1.800000
v -0.575000 -0.575000 1.500000
v -0.325000 -0.575000 1.500000
v -0.325000 -0.325000 1.500000
v -0.575000 -0.325000 1.500000
v -0.575000 -0.575000 1.800000
v -0.325000 -0.575000 1.800000
v -0.325000 -0.325000 1.800000
v -0.575000 -0.325000 1.800000
v 0.300000 0.000000 0.000000
v 0.212132 0.212132 0.000000
v 0.000000 0.300000 0.000000
v -0.212132 0.212132 0.000000
v -0.300000 0.000000 0.000000
v -0.212132 -0.212132 0.000000
v -0.000000 -0.300000 0.000000
v 0.212132 -0.212132 0.000000
v 0.350000 0.000000 0.150000
v 0.247487 0.247487 0.150000
v 0.000000 0.350000 0.150000
v -0.247487 0.247487 0.150000
v -0.350000 0.000000 0.150000
v -0.247487 -0.247487 0.150000
v -0.000000 -0.350000 0.150000
v 0.247487 -0.247487 0.150000
v 0.000000 0.000000 0.000000
v 0.000000 0.000000 0.150000
v 0.450000 -0.175000 0.050000
v 0.650000 -0.175000 0.050000
v 0.650000 0.175000 0.050000
v 0.450000 0.175000 0.050000
v 0.450000 -0.175000 0.550000
v 0.650000 -0.175000 0.550000
v 0.650000 0.175000 0.550000
v 0.450000 0.175000 0.550000
v -0.650000 -0.175000 0.050000
v -0.450000 -0.175000 0.050000
v -0.450000 0.175000 0.050000
v -0.650000 0.175000 0.050000
v -0.650000 -0.175000 0.550000
v -0.450000 -0.175000 0.550000
v -0.450000 0.175000 0.550000
v -0.650000 0.175000 0.550000
vn -0.333333 -0.666667 -0.666667
vn 0.816497 -0.408248 -0.408248
vn 0.333333 0.666667 -0.666667
vn -0.816497 0.408248 -0.408248
vn -0.666667 -0.333333 0.666667
vn 0.408248 -0.816497 0.408248
vn 0.666667 0.333333 0.666667
vn -0.408248 0.816497 0.408248
vn -0.333333 -0.666667 -0.666667
vn 0.816497 -0.408248 -0.408248
vn 0.333333 0.666667 -0.666667
vn -0.816497 0.408248 -0.408248
vn -0.666667 -0.333333 0.666667
vn 0.408248 -0.816497 0.408248
vn 0.666667 0.333333 0.666667
vn -0.408248 0.816497 0.408248
vn -0.333333 -0.666667 -0.666667
vn 0.816497 -0.408248 -0.408248
vn 0.333333 0.666667 -0.666667
vn -0.816497 0.408248 -0.408248
vn -0.666667 -0.333333 0.666667
vn 0.408248 -0.816497 0.408248
vn 0.666667 0.333333 0.666667
vn -0.408248 0.816497 0.408248
vn -0.333333 -0.666667 -0.666667
vn 0.816497 -0.408248 -0.408248
vn 0.333333 0.666667 -0.666667
vn -0.816497 0.408248 -0.408248
vn -0.666667 -0.333333 0.666667
vn 0.408248 -0.816497 0.408248
vn 0.666667 0.333333 0.666667
vn -0.408248 0.816497 0.408248
vn -0.333333 -0.666667 -0.666667
vn 0.816497 -0.408248 -0.408248
vn 0.333333 0.666667 -0.666667
vn -0.816497 0.408248 -0.408248
vn -0.666667 -0.333333 0.666667
vn 0.408248 -0.816497 0.408248
vn 0.666667 0.333333 0.666667
vn -0.408248 0.816497 0.408248
vn -0.333333 -0.666667 -0.666667
vn 0.816497 -0.408248 -0.408248
vn 0.333333 0.666667 -0.666667
vn -0.816497 0.408248 -0.408248
vn -0.666667 -0.333333 0.666667
vn 0.408248 -0.816497 0.408248
vn 0.666667 0.333333 0.666667
vn -0.408248 0.816497 0.408248
vn -0.333333 -0.666667 -0.666667
vn 0.816497 -0.408248 -0.408248
vn 0.333333 0.666667 -0.666667
vn -0.816497 0.408248 -0.408248
vn -0.666667 -0.333333 0.666667
vn 0.408248 -0.816497 0.408248
vn 0.666667 0.333333 0.666667
vn -0.408248 0.816497 0.408248
vn 0.673647 0.093011 -0.733177
vn 0.410571 0.542109 -0.733177
vn -0.093011 0.673647 -0.733177
vn -0.542109 0.410571 -0.733177
vn -0.673647 -0.093011 -0.733177
vn -0.410571 -0.542109 -0.733177
vn 0.093011 -0.673647 -0.733177
vn 0.542109 -0.410571 -0.733177
vn 0.914053 -0.126204 0.385460
vn 0.735573 0.557093 0.385460
vn 0.126204 0.914053 0.385460
vn -0.557093 0.735573 0.385460
vn -0.914053 0.126204 0.385460
vn -0.735573 -0.557093 0.385460
vn -0.126204 -0.914053 0.385460
vn 0.557093 -0.735573 0.385460
vn 0.000000 0.000000 -1.000000
vn 0.000000 0.000000 1.000000
vn -0.333333 -0.666667 -0.666667
vn 0.816497 -0.408248 -0.408248
vn 0.333333 0.666667 -0.666667
vn -0.816497 0.408248 -0.408248
vn -0.666667 -0.333333 0.666667
vn 0.408248 -0.816497 0.408248
vn 0.666667 0.333333 0.666667
vn -0.408248 0.816497 0.408248
vn -0.333333 -0.666667 -0.666667
vn 0.816497 -0.408248 -0.408248
vn 0.333333 0.666667 -0.666667
vn -0.816497 0.408248 -0.408248
vn -0.666667 -0.333333 0.666667
vn 0.408248 -0.816497 0.408248
vn 0.666667 0.333333 0.666667
vn -0.408248 0.816497 0.408248
f 1//1 3//3 2//2
f 1//1 4//4 3//3
f 5//5 6//6 7//7
f 5//5 7//7 8//8
f 1//1 2//2 6//6
f 1//1 6//6 5//5
f 2//2 3//3 7//7
f 2//2 7//7 6//6
f 3//3 4//4 8//8
f 3//3 8//8 7//7
f 4//4 1//1 5//5
f 4//4 5//5 8//8
f 9//9 11//11 10//10
f 9//9 12//12 11//11
f 13//13 14//14 15//15
f 13//13 15//15 16//16
f 9//9 10//10 14//14
f 9//9 14//14 13//13
f 10//10 11//11 15//15
f 10//10 15//15 14//14
f 11//11 12//12 16//16
f 11//11 16//16 15//15
f 12//12 9//9 13//13
f 12//12 13//13 16//16
f 17//17 19//19 18//18
f 17//17 20//20 19//19
f 21//21 22//22 23//23
f 21//21 23//23 24//24
f 17//17 18//18 22//22
f 17//17 22//22 21//21
f 18//18 19//19 23//23
f 18//18 23//23 22//22
f 19//19 20//20 24//24
f 19//19 24//24 23//23
f 20//20 17//17 21//21
f 20//20 21//21 24//24
f 25//25 27//27 26//26
f 25//25 28//28 27//27
f 29//29 30//30 31//31
f 29//29 31//31 32//32
f 25//25 26//26 30//30
f 25//25 30//30 29//29
f 26//26 27//27 31//31
f 26//26 31//31 30//30
f 27//27 28//28 32//32
f 27//27 32//32 31//31
f 28//28 25//25 29//29
f 28//28 29//29 32//32
f 33//33 35//35 34//34
f 33//33 36//36 35//35
f 37//37 38//38 39//39
f 37//37 39//39 40//40
f 33//33 34//34 38//38
f 33//33 38//38 37//37
f 34//34 35//35 39//39
f 34//34 39//39 38//38
f 35//35 36//36 40//40
f 35//35 40//40 39//39
f 36//36 33//33 37//37
f 36//36 37//37 40//40
f 41//41 43//43 42//42
f 41//41 44//44 43//43
f 45//45 46//46 47//47
f 45//45 47//47 48//48
f 41//41 42//42 46//46
f 41//41 46//46 45//45
f 42//42 43//43 47//47
f 42//42 47//47 46//46
f 43//43 44//44 48//48
f 43//43 48//48 47//47
f 44//44 41//41 45//45
f 44//44 45//45 48//48
f 49//49 51//51 50//50
f 49//49 52//52 51//51
f 53//53 54//54 55//55
f 53//53 55//55 56//56
f 49//49 50//50 54//54
f 49//49 54//54 53//53
f 50//50 51//51 55//55
f 50//50 55//55 54//54
f 51//51 52//52 56//56
f 51//51 56//56 55//55
f 52//52 49//49 53//53
f 52//52 53//53 56//56
f 57//57 58//58 66//66
f 57//57 66//66 65//65
f 58//58 59//59 67//67
f 58//58 67//67 66//66
f 59//59 60//60 68//68
f 59//59 68//68 67//67
f 60//60 61//61 69//69
f 60//60 69//69 68//68
f 61//61 62//62 70//70
f 61//61 70//70 69//69
f 62//62 63//63 71//71
f 62//62 71//71 70//70
f 63//63 64//64 72//72
f 63//63 72//72 71//71
f 64//64 57//57 65//65
f 64//64 65//65 72//72
f 73//73 58//58 57//57
f 74//74 65//65 66//66
f 73//73 59//59 58//58
f 74//74 66//66 67//67
f 73//73 60//60 59//59
f 74//74 67//67 68//68
f 73//73 61//61 60//60
f 74//74 68//68 69//69
f 73//73 62//62 61//61
f 74//74 69//69 70//70
f 73//73 63//63 62//62
f 74//74 70//70 71//71
f 73//73 64//64 63//63
f 74//74 71//71 72//72
f 73//73 57//57 64//64
f 74//74 72//72 65//65
f 75//75 77//77 76//76
f 75//75 78//78 77//77
f 79//79 80//80 81//81
f 79//79 81//81 82//82
f 75//75 76//76 80//80
f 75//75 80//80 79//79
f 76//76 77//77 81//81
f 76//76 81//81 80//80
f 77//77 78//78 82//82
f 77//77 82//82 81//81
f 78//78 75//75 79//79
f 78//78 79//79 82//82
f 83//83 85//85 84//84
f 83//83 86//86 85//85
f 87//87 88//88 89//89
f 87//87 89//89 90//90
f 83//83 84//84 88//88
f 83//83 88//88 87//87
f 84//84 85//85 89//89
f 84//84 89//89 88//88
f 85//85 86//86 90//90
f 85//85 90//90 89//89
f 86//86 83//83 87//87
f 86//86 87//87 90//90
